<svg width="34" height="34" viewBox="0 0 34 34" fill="none" xmlns="http://www.w3.org/2000/svg">
<path d="M16.34 0.339966C7.50408 0.339966 0.339996 7.50405 0.339996 16.34C0.339996 25.1759 7.50408 32.34 16.34 32.34C25.1759 32.34 32.34 25.1759 32.34 16.34C32.34 7.50405 25.1759 0.339966 16.34 0.339966ZM24.2029 11.3081L21.5775 23.6771C21.398 24.5587 20.8657 24.7645 20.1278 24.3596L16.1278 21.4012L14.2078 23.2689C13.9824 23.4877 13.8061 23.6706 13.4078 23.6706C12.8886 23.6706 12.9767 23.4779 12.8004 22.9816L11.4388 18.5081L7.48122 17.2771C6.62571 17.0159 6.61918 16.4281 7.67387 16.0069L23.0861 10.0575C23.7914 9.74078 24.4706 10.2273 24.2029 11.3081Z" fill="#9CABBA"/>
</svg>
