<svg width="32" height="32" viewBox="0 0 32 32" fill="none" xmlns="http://www.w3.org/2000/svg">
<g clip-path="url(#clip0_131_98)">
<path fill-rule="evenodd" clip-rule="evenodd" d="M2.24659 2.24659C1.94267e-07 4.50009 0 8.12 0 15.3333V16.7304C0 23.9012 1.94267e-07 27.5131 2.24659 29.7534C4.50009 32 8.12 32 15.3333 32H16.9776C23.9847 32.0005 27.5392 32.0006 29.7532 29.7801C32 27.5267 32 23.9066 32 16.6667V15.2697C32 8.09866 32 4.48676 29.7532 2.24659C27.5001 1.94267e-07 23.8801 0 16.6667 0H15.2697C8.09867 0 4.48676 1.94267e-07 2.24659 2.24659ZM5.4 9.72017C5.57333 18.0533 9.73333 23.0533 17.0266 23.0533L17.4399 23.0667V18.3067C18.7267 18.4679 19.9372 19.0057 20.9193 19.8526C21.9014 20.6993 22.6114 21.8176 22.96 23.0667H26.7599C26.3693 21.6313 25.679 20.2952 24.7343 19.1461C23.7898 17.9969 22.6125 17.061 21.28 16.4C22.4753 15.6705 23.5069 14.7017 24.3099 13.5544C25.113 12.4071 25.6704 11.1062 25.9466 9.73333H22.5066C21.7601 12.3733 19.5467 14.7734 17.4399 15V9.73351H13.9999V18.9467C11.8667 18.3867 9.17332 15.8266 9.05334 9.72L5.4 9.72017Z" fill="#9CABBA"/>
</g>
<defs>
<clipPath id="clip0_131_98">
<rect width="32" height="32" fill="white"/>
</clipPath>
</defs>
</svg>
