<svg width="48" height="32" viewBox="0 0 48 32" fill="none" xmlns="http://www.w3.org/2000/svg">
<path d="M42.4087 7.75547C41.9661 6.28702 40.6691 5.1292 39.0244 4.73389C36.0194 4 23.9993 4 23.9993 4C23.9993 4 11.98 4 8.97503 4.70611C7.36186 5.10108 6.03322 6.2872 5.59066 7.75547C4.8 10.4376 4.8 16 4.8 16C4.8 16 4.8 21.5905 5.59105 24.2444C6.0338 25.7128 7.33056 26.8705 8.97542 27.2658C12.0117 28 24 28 24 28C24 28 36.0194 28 39.0244 27.2938C40.6693 26.8987 41.9661 25.7411 42.4091 24.2727C43.1998 21.5905 43.1998 16.0282 43.1998 16.0282C43.1998 16.0282 43.2312 10.4375 42.4087 7.75547ZM20.1725 21.1387V10.8612L30.1679 16L20.1725 21.1387Z" fill="#9CABBA"/>
</svg>
