<svg width="20" height="20" viewBox="0 0 20 20" fill="none" xmlns="http://www.w3.org/2000/svg">
<g clip-path="url(#clip0_1_160)">
<path fill-rule="evenodd" clip-rule="evenodd" d="M18.6875 7.60078C18.5328 7.12387 18.108 6.78556 17.6086 6.74141L12.9688 6.34141L11.15 2.01641C10.9564 1.55236 10.5028 1.25016 10 1.25016C9.49718 1.25016 9.04363 1.55236 8.85 2.01641L7.03672 6.34141L2.39141 6.74375C1.8899 6.78589 1.46257 7.12469 1.30717 7.60337C1.15176 8.08205 1.29858 8.60724 1.67969 8.93594L5.20391 12.0156L4.14766 16.5891C4.03347 17.0784 4.22335 17.5885 4.62968 17.884C5.03602 18.1796 5.57982 18.2031 6.01016 17.9438L9.99453 15.5219L13.9875 17.9438C14.4178 18.2031 14.9616 18.1796 15.368 17.884C15.7743 17.5885 15.9642 17.0784 15.85 16.5891L14.7945 12.0109L18.318 8.93594C18.6991 8.60609 18.8448 8.07963 18.6875 7.60078ZM17.4984 7.99141L13.975 11.0664C13.6255 11.3704 13.4728 11.8427 13.5781 12.2937L14.6367 16.875L10.6469 14.4531C10.25 14.2115 9.75152 14.2115 9.35469 14.4531L5.37031 16.875L6.42188 12.2969C6.52719 11.8458 6.37447 11.3735 6.025 11.0695L2.5 7.99609C2.49971 7.99376 2.49971 7.9914 2.5 7.98906L7.14375 7.5875C7.60581 7.54677 8.00732 7.25353 8.18672 6.82578L10 2.50625L11.8125 6.82578C11.9919 7.25353 12.3934 7.54677 12.8555 7.5875L17.5 7.98906C17.5 7.98906 17.5 7.99375 17.5 7.99453L17.4984 7.99141Z" fill="#47596B"/>
</g>
<defs>
<clipPath id="clip0_1_160">
<rect width="20" height="20" fill="white"/>
</clipPath>
</defs>
</svg>
