<svg width="20" height="20" viewBox="0 0 20 20" fill="none" xmlns="http://www.w3.org/2000/svg">
<g clip-path="url(#clip0_1_156)">
<path fill-rule="evenodd" clip-rule="evenodd" d="M18.3203 8.93594L14.7969 12.0109L15.8523 16.5891C15.9665 17.0784 15.7766 17.5885 15.3703 17.884C14.964 18.1796 14.4202 18.2031 13.9898 17.9438L9.99687 15.5219L6.0125 17.9438C5.58216 18.2031 5.03836 18.1796 4.63203 17.884C4.22569 17.5885 4.03581 17.0784 4.15 16.5891L5.20391 12.0156L1.67969 8.93594C1.29858 8.60724 1.15176 8.08205 1.30717 7.60337C1.46257 7.12469 1.8899 6.78589 2.39141 6.74375L7.03672 6.34141L8.85 2.01641C9.04363 1.55236 9.49718 1.25016 10 1.25016C10.5028 1.25016 10.9564 1.55236 11.15 2.01641L12.9688 6.34141L17.6125 6.74375C18.114 6.78589 18.5413 7.12469 18.6967 7.60337C18.8521 8.08205 18.7053 8.60724 18.3242 8.93594H18.3203Z" fill="#0D66F2"/>
</g>
<defs>
<clipPath id="clip0_1_156">
<rect width="20" height="20" fill="white"/>
</clipPath>
</defs>
</svg>
