<?xml version="1.0" standalone="no"?>
<!DOCTYPE svg PUBLIC "-//W3C//DTD SVG 20010904//EN"
 "http://www.w3.org/TR/2001/REC-SVG-20010904/DTD/svg10.dtd">
<svg version="1.0" xmlns="http://www.w3.org/2000/svg"
 width="208.000000pt" height="148.000000pt" viewBox="0 0 208.000000 148.000000"
 preserveAspectRatio="xMidYMid meet">

<g transform="translate(0.000000,148.000000) scale(0.100000,-0.100000)"
fill="#ffffff" stroke="none">
<path d="M631 1448 c-5 -13 -147 -333 -316 -713 -169 -379 -309 -694 -311
-700 -3 -6 55 -9 165 -7 l169 3 42 104 42 105 254 0 c141 0 254 4 254 9 0 5
-22 67 -49 137 l-48 129 -147 3 c-80 1 -146 7 -146 11 0 5 90 215 200 467 110
252 198 459 197 460 -1 1 -68 4 -150 8 l-147 7 -9 -23z"/>
<path d="M1861 1451 l-95 -6 -222 -509 c-123 -280 -226 -511 -229 -514 -7 -8
-5 -14 -87 208 -177 479 -241 641 -249 628 -13 -23 -249 -601 -249 -610 0 -4
42 -8 93 -8 l93 0 116 -312 117 -313 148 -3 149 -3 297 678 c162 373 305 699
316 726 l20 47 -62 -2 c-34 -1 -104 -4 -156 -7z"/>
</g>
</svg>
