<?xml version="1.0" standalone="no"?>
<!DOCTYPE svg PUBLIC "-//W3C//DTD SVG 20010904//EN"
 "http://www.w3.org/TR/2001/REC-SVG-20010904/DTD/svg10.dtd">
<svg version="1.0" xmlns="http://www.w3.org/2000/svg"
 width="280.000000pt" height="280.000000pt" viewBox="0 0 280.000000 280.000000"
 preserveAspectRatio="xMidYMid meet">

<g transform="translate(0.000000,280.000000) scale(0.100000,-0.100000)"
fill="#ffffff" stroke="none">
<path d="M259 2247 c-55 -37 -79 -81 -79 -147 0 -89 54 -154 141 -171 57 -11
2101 -11 2158 0 87 17 141 82 141 171 0 66 -24 110 -79 147 l-34 23 -1107 0
-1107 0 -34 -23z"/>
<path d="M260 1548 c-135 -93 -98 -288 61 -319 57 -11 2101 -11 2158 0 87 17
141 82 141 171 0 66 -24 110 -79 147 l-34 23 -1107 0 -1107 0 -33 -22z"/>
<path d="M259 847 c-55 -37 -79 -81 -79 -147 0 -89 54 -154 141 -171 57 -11
2101 -11 2158 0 87 17 141 82 141 171 0 66 -24 110 -79 147 l-34 23 -1107 0
-1107 0 -34 -23z"/>
</g>
</svg>
